<mxfile host="65bd71144e">
    <diagram name="Page-1" id="9f46799a-70d6-7492-0946-bef42562c5a5">
        <mxGraphModel dx="1089" dy="830" grid="1" gridSize="10" guides="1" tooltips="1" connect="1" arrows="1" fold="1" page="1" pageScale="1" pageWidth="827" pageHeight="1169" background="none" math="0" shadow="0">
            <root>
                <mxCell id="0"/>
                <mxCell id="1" parent="0"/>
                <mxCell id="2" value="" style="group" vertex="1" connectable="0" parent="1">
                    <mxGeometry x="40" y="40" width="440" height="760" as="geometry"/>
                </mxCell>
                <mxCell id="aqwNd4h1SRm55kVK6qTZ-35" value="" style="rounded=0;whiteSpace=wrap;html=1;" parent="2" vertex="1">
                    <mxGeometry width="440" height="760" as="geometry"/>
                </mxCell>
                <mxCell id="aqwNd4h1SRm55kVK6qTZ-7" value="System" style="shape=folder;fontStyle=1;spacingTop=10;tabWidth=40;tabHeight=14;tabPosition=left;html=1;whiteSpace=wrap;verticalAlign=top;" parent="2" vertex="1">
                    <mxGeometry x="20" y="20" width="400" height="720" as="geometry"/>
                </mxCell>
                <mxCell id="aqwNd4h1SRm55kVK6qTZ-1" value="&amp;lt;&amp;lt;layer&amp;gt;&amp;gt;&lt;div&gt;&lt;span style=&quot;background-color: initial;&quot;&gt;&lt;br&gt;&lt;/span&gt;&lt;/div&gt;&lt;div&gt;&lt;span style=&quot;background-color: initial;&quot;&gt;View&lt;/span&gt;&lt;/div&gt;" style="shape=folder;fontStyle=1;spacingTop=10;tabWidth=40;tabHeight=14;tabPosition=left;html=1;whiteSpace=wrap;horizontal=1;verticalAlign=top;" parent="2" vertex="1">
                    <mxGeometry x="80" y="80" width="100" height="80" as="geometry"/>
                </mxCell>
                <mxCell id="aqwNd4h1SRm55kVK6qTZ-3" value="&amp;lt;&amp;lt;layer&amp;gt;&amp;gt;&lt;div&gt;&lt;br&gt;&lt;div&gt;Controllers&lt;/div&gt;&lt;/div&gt;" style="shape=folder;fontStyle=1;spacingTop=10;tabWidth=40;tabHeight=14;tabPosition=left;html=1;whiteSpace=wrap;horizontal=1;verticalAlign=top;" parent="2" vertex="1">
                    <mxGeometry x="80" y="360" width="100" height="80" as="geometry"/>
                </mxCell>
                <mxCell id="aqwNd4h1SRm55kVK6qTZ-4" value="&amp;lt;&amp;lt;layer&amp;gt;&amp;gt;&lt;div&gt;&lt;br&gt;&lt;div&gt;Models&lt;/div&gt;&lt;/div&gt;" style="shape=folder;fontStyle=1;spacingTop=10;tabWidth=40;tabHeight=14;tabPosition=left;html=1;whiteSpace=wrap;verticalAlign=top;" parent="2" vertex="1">
                    <mxGeometry x="80" y="640" width="100" height="80" as="geometry"/>
                </mxCell>
                <mxCell id="aqwNd4h1SRm55kVK6qTZ-5" value="" style="endArrow=open;endFill=1;endSize=12;html=1;rounded=0;dashed=1;" parent="2" source="aqwNd4h1SRm55kVK6qTZ-9" target="aqwNd4h1SRm55kVK6qTZ-3" edge="1">
                    <mxGeometry width="160" relative="1" as="geometry">
                        <mxPoint x="10" y="240" as="sourcePoint"/>
                        <mxPoint x="170" y="240" as="targetPoint"/>
                    </mxGeometry>
                </mxCell>
                <mxCell id="aqwNd4h1SRm55kVK6qTZ-6" value="" style="endArrow=open;endFill=1;endSize=12;html=1;rounded=0;dashed=1;" parent="2" source="aqwNd4h1SRm55kVK6qTZ-13" target="aqwNd4h1SRm55kVK6qTZ-4" edge="1">
                    <mxGeometry width="160" relative="1" as="geometry">
                        <mxPoint x="140" y="310" as="sourcePoint"/>
                        <mxPoint x="140" y="270" as="targetPoint"/>
                    </mxGeometry>
                </mxCell>
                <mxCell id="aqwNd4h1SRm55kVK6qTZ-10" value="" style="endArrow=open;endFill=1;endSize=12;html=1;rounded=0;dashed=1;" parent="2" source="aqwNd4h1SRm55kVK6qTZ-1" target="aqwNd4h1SRm55kVK6qTZ-9" edge="1">
                    <mxGeometry width="160" relative="1" as="geometry">
                        <mxPoint x="130" y="140" as="sourcePoint"/>
                        <mxPoint x="130" y="370" as="targetPoint"/>
                    </mxGeometry>
                </mxCell>
                <mxCell id="aqwNd4h1SRm55kVK6qTZ-9" value="&amp;lt;&amp;lt;layer&amp;gt;&amp;gt;&lt;div&gt;&lt;br&gt;&lt;/div&gt;&lt;div&gt;Routes&lt;/div&gt;" style="shape=folder;fontStyle=1;spacingTop=10;tabWidth=40;tabHeight=14;tabPosition=left;html=1;whiteSpace=wrap;horizontal=1;verticalAlign=top;" parent="2" vertex="1">
                    <mxGeometry x="80" y="220" width="100" height="80" as="geometry"/>
                </mxCell>
                <mxCell id="aqwNd4h1SRm55kVK6qTZ-11" value="&amp;lt;&amp;lt;layer&amp;gt;&amp;gt;&lt;div&gt;&lt;br&gt;&lt;div&gt;Middlewares&lt;/div&gt;&lt;/div&gt;" style="shape=folder;fontStyle=1;spacingTop=10;tabWidth=40;tabHeight=14;tabPosition=left;html=1;whiteSpace=wrap;verticalAlign=top;" parent="2" vertex="1">
                    <mxGeometry x="260" y="220" width="100" height="80" as="geometry"/>
                </mxCell>
                <mxCell id="aqwNd4h1SRm55kVK6qTZ-12" value="" style="endArrow=open;endFill=1;endSize=12;html=1;rounded=0;dashed=1;" parent="2" source="aqwNd4h1SRm55kVK6qTZ-9" target="aqwNd4h1SRm55kVK6qTZ-11" edge="1">
                    <mxGeometry width="160" relative="1" as="geometry">
                        <mxPoint x="140" y="150" as="sourcePoint"/>
                        <mxPoint x="140" y="255" as="targetPoint"/>
                    </mxGeometry>
                </mxCell>
                <mxCell id="aqwNd4h1SRm55kVK6qTZ-14" value="" style="endArrow=open;endFill=1;endSize=12;html=1;rounded=0;dashed=1;" parent="2" source="aqwNd4h1SRm55kVK6qTZ-3" target="aqwNd4h1SRm55kVK6qTZ-13" edge="1">
                    <mxGeometry width="160" relative="1" as="geometry">
                        <mxPoint x="130" y="450" as="sourcePoint"/>
                        <mxPoint x="130" y="600" as="targetPoint"/>
                    </mxGeometry>
                </mxCell>
                <mxCell id="aqwNd4h1SRm55kVK6qTZ-13" value="&amp;lt;&amp;lt;layer&amp;gt;&amp;gt;&lt;div&gt;&lt;br&gt;&lt;div&gt;Services&lt;/div&gt;&lt;/div&gt;" style="shape=folder;fontStyle=1;spacingTop=10;tabWidth=40;tabHeight=14;tabPosition=left;html=1;whiteSpace=wrap;horizontal=1;verticalAlign=top;" parent="2" vertex="1">
                    <mxGeometry x="80" y="500" width="100" height="80" as="geometry"/>
                </mxCell>
            </root>
        </mxGraphModel>
    </diagram>
</mxfile>